Coordinates
version=1
nRows=17
nColumns=40
inDegrees=yes

Units are S.I. units (second, meters, Newtons, ...)
Angles are in degrees.

endheader
time	pelvis_tilt	pelvis_list	pelvis_rotation	pelvis_tx	pelvis_ty	pelvis_tz	hip_flexion_r	hip_adduction_r	hip_rotation_r	knee_angle_r	knee_angle_r_beta	ankle_angle_r	subtalar_angle_r	mtp_angle_r	hip_flexion_l	hip_adduction_l	hip_rotation_l	knee_angle_l	knee_angle_l_beta	ankle_angle_l	subtalar_angle_l	mtp_angle_l	lumbar_extension	lumbar_bending	lumbar_rotation	arm_flex_r	arm_add_r	arm_rot_r	elbow_flex_r	pro_sup_r	wrist_flex_r	wrist_dev_r	arm_flex_l	arm_add_l	arm_rot_l	elbow_flex_l	pro_sup_l	wrist_flex_l	wrist_dev_l
      0.96000000	     -1.15276483	     -1.01025623	     -3.97284929	      0.37237550	      0.88945824	     -1.04220530	     -3.39963994	      3.46335885	    -11.48626217	    -19.36889559	     -0.33805100	     13.19723310	      6.19054500	     -6.70863849	     32.35787106	      8.29997385	     12.35222940	    -38.61764683	     -0.67400509	      4.86032257	     16.94318917	     18.02274048	     -6.01909096	      0.69660854	      1.88701732	     -3.47783367	    -14.28860199	     -6.49281425	     62.19233459	     89.95437384	      0.00000000	      0.00000000	    -15.82871182	      6.55104432	     20.18824666	     29.58109654	     89.95437384	      0.00000000	      0.00000000
      0.97000000	     -1.45349733	     -1.06600040	     -4.27744984	      0.38352399	      0.88795070	     -1.04202620	     -3.80661545	      3.42001361	    -11.29134747	    -19.50416275	     -0.34041186	     13.33017803	      6.36248824	     -6.97821432	     32.64471836	      8.40607314	     12.68620080	    -35.39414067	     -0.61774429	      4.70767016	     15.80137360	     17.24961862	     -5.79922541	      0.67288155	      2.13549351	     -3.13276321	    -14.42802792	     -6.29834601	     63.15514815	     89.95437384	      0.00000000	      0.00000000	    -16.08579021	      6.39178172	     20.58488446	     28.82140201	     89.95437384	      0.00000000	      0.00000000
      0.98000000	     -1.96998647	     -1.30219274	     -4.44816601	      0.39455973	      0.88603118	     -1.04198220	     -3.93199736	      3.59874452	    -11.09789659	    -19.74288130	     -0.34457828	     13.18605057	      6.43347593	     -7.01884844	     33.28102867	      8.63289613	     12.69632085	    -32.52209846	     -0.56761770	      4.88149394	     14.53200408	     16.76051676	     -5.34873887	      0.87645799	      2.26929402	     -2.83442879	    -14.59524776	     -6.06378722	     64.00939447	     89.95437384	      0.00000000	      0.00000000	    -16.39746342	      6.29261595	     20.65876530	     28.24119548	     89.95437384	      0.00000000	      0.00000000
      0.99000000	     -2.13706704	     -1.30906066	     -4.80739150	      0.40616007	      0.88464961	     -1.04183225	     -4.42247561	      3.36018316	    -11.12398617	    -20.00132794	     -0.34908903	     12.86084394	      6.89762403	    -10.44338633	     33.39944984	      8.90181904	     13.66818703	    -29.75936148	     -0.51939884	      3.61246747	     13.58189191	      6.06757149	     -5.22965962	      0.79980954	      2.56875200	     -2.51523676	    -14.70348262	     -5.91008830	     64.76697507	     89.95437384	      0.00000000	      0.00000000	    -16.50657510	      6.18416521	     21.07918912	     27.42780276	     89.95437384	      0.00000000	      0.00000000
      1.00000000	     -2.54173144	     -1.56667597	     -4.91630477	      0.41774004	      0.88290041	     -1.04206028	     -4.69651191	      3.50288823	    -11.00441464	    -20.22862195	     -0.35305606	     12.68343000	      6.89219285	    -10.34526795	     34.06403509	      9.15997397	     13.83341962	    -27.80422393	     -0.48527525	      3.68666707	     12.65939543	      5.93286019	     -4.86233703	      1.02065930	      2.66723493	     -2.31568405	    -14.85924662	     -5.70788767	     65.45981614	     89.95437384	      0.00000000	      0.00000000	    -16.76631170	      6.13022076	     21.05656404	     27.00002510	     89.95437384	      0.00000000	      0.00000000
      1.01000000	     -2.71959922	     -1.39641962	     -5.38276010	      0.42942036	      0.88157472	     -1.04198021	     -5.01501111	      3.10357487	    -10.45039605	    -20.84105624	     -0.36374505	     12.63343386	      7.07720008	    -10.27705468	     34.30523687	      9.39852610	     15.42974789	    -26.10616923	     -0.45563861	      3.40175992	     10.13097290	      5.22255049	     -4.73046210	      0.73874671	      3.09582962	     -2.12148689	    -14.87594015	     -5.70551148	     66.08142129	     89.95437384	      0.00000000	      0.00000000	    -16.71275731	      6.08677899	     21.30714059	     26.18522587	     89.95437384	      0.00000000	      0.00000000
      1.02000000	     -2.89524083	     -1.34853836	     -5.66815302	      0.44155344	      0.88025685	     -1.04221765	     -5.39151516	      2.82156841	    -10.12776099	    -21.33389471	     -0.37234670	     12.45729915	      7.31842831	    -10.26971804	     34.62272426	      9.60735189	     16.68802784	    -24.98474394	     -0.43606604	      3.27922854	      8.27230896	      4.43080510	     -4.54975962	      0.60673751	      3.32438392	     -1.95334272	    -14.94601202	     -5.57522117	     66.55638969	     89.95437384	      0.00000000	      0.00000000	    -16.75504120	      6.05353975	     21.43668961	     25.57956581	     89.95437384	      0.00000000	      0.00000000
      1.03000000	     -3.11075819	     -1.32700825	     -5.89319234	      0.45365881	      0.87891303	     -1.04261772	     -5.67305433	      2.59386412	     -9.71146686	    -21.94443802	     -0.38300270	     12.02487353	      7.28442115	    -10.14442206	     34.98091069	      9.60191359	     17.16720606	    -24.21354930	     -0.42260616	      3.43591603	      7.52126052	      4.10523944	     -4.32968744	      0.50510200	      3.46970364	     -1.76951774	    -15.02590441	     -5.43450116	     66.94757417	     89.95437384	      0.00000000	      0.00000000	    -16.82293620	      6.07451367	     21.30253494	     25.15172285	     89.95437384	      0.00000000	      0.00000000
      1.04000000	     -3.09599615	     -1.18882161	     -6.25725618	      0.46639502	      0.87794171	     -1.04273982	     -6.20501524	      2.19357752	     -9.15272657	    -22.53432534	     -0.39329817	     11.69549258	      7.31811197	    -10.09106050	     34.99103600	      9.57224951	     17.91092010	    -23.88936505	     -0.41694808	      3.59268335	      6.83312685	      3.64635474	     -4.29139330	      0.23200480	      3.79046280	     -1.75738051	    -14.98485387	     -5.42276017	     67.22646589	     89.95437384	      0.00000000	      0.00000000	    -16.77665482	      6.11042740	     21.33540312	     24.66400839	     89.95437384	      0.00000000	      0.00000000
      1.05000000	     -3.23893541	     -1.20300906	     -6.30734832	      0.47950904	      0.87662470	     -1.04299526	     -6.62142936	      2.03921973	     -8.89839952	    -23.11999942	     -0.40352011	     11.33815766	      7.11619859	     -9.89909088	     35.25830089	      9.43942224	     17.65880378	    -24.04011322	     -0.41957913	      3.50541231	      6.65094557	      3.56403403	     -4.03422451	      0.10356797	      3.73075924	     -1.79349404	    -14.88270175	     -5.35332850	     67.40503248	     89.95437384	      0.00000000	      0.00000000	    -17.04492058	      6.18791469	     21.25991058	     24.73747300	     89.95437384	      0.00000000	      0.00000000
      1.06000000	     -2.99382935	     -1.07072121	     -6.82766375	      0.49268230	      0.87610250	     -1.04296072	     -7.24807257	      1.61295541	     -7.90877241	    -23.98060640	     -0.41854054	     10.54521834	      6.97433214	     -9.73349839	     34.72710853	      9.26034303	     17.74390385	    -24.12065952	     -0.42098493	      4.17324028	      7.09001322	      3.36563169	     -4.21060551	     -0.18124222	      4.21782516	     -1.85692169	    -14.91789624	     -5.25955223	     67.63646571	     89.95437384	      0.00000000	      0.00000000	    -16.74702398	      6.29170260	     21.05549549	     24.01349958	     89.95437384	      0.00000000	      0.00000000
      1.07000000	     -3.12249925	     -1.03021551	     -6.88491794	      0.50661933	      0.87486234	     -1.04327995	     -7.59846955	      1.40390630	     -7.56037675	    -24.71158607	     -0.43129854	     10.06159047	      6.70783120	     -9.49747606	     34.69899704	      8.98777617	     17.26709008	    -24.57662536	     -0.42894303	      3.93646602	      6.91082236	      3.28972998	     -3.85742268	     -0.35219853	      4.15250991	     -2.10714603	    -14.79018685	     -5.20163957	     67.70380242	     89.95437384	      0.00000000	      0.00000000	    -17.00907581	      6.38149553	     20.98047320	     24.18870258	     89.95437384	      0.00000000	      0.00000000
      1.08000000	     -2.82264655	     -0.64977256	     -7.15869324	      0.52001718	      0.87448217	     -1.04377896	     -8.07205525	      0.82126969	     -6.40132223	    -25.87761462	     -0.45164958	      8.78926811	      5.22417126	     -9.11595983	     34.06094429	      8.04964604	     15.79084736	    -25.06743797	     -0.43750933	      3.86845845	      9.49747125	      3.16821738	     -4.08469512	     -0.92807251	      4.41055903	     -2.32173140	    -14.60569826	     -5.40271382	     67.81025571	     89.95437384	      0.00000000	      0.00000000	    -16.61625524	      6.53938489	     20.98337622	     23.69186718	     89.95437384	      0.00000000	      0.00000000
      1.09000000	     -2.82011077	     -0.53510030	     -7.22629430	      0.53419417	      0.87337587	     -1.04420400	     -8.28601959	      0.53057602	     -5.86078224	    -27.07438536	     -0.47253717	      7.86027870	      4.95970098	     -8.78040514	     33.83158331	      7.58406197	     14.76905941	    -26.01403531	     -0.45403057	      3.17492344	      9.06774876	      3.09003538	     -3.86938253	     -1.19747801	      4.33339677	     -2.69677979	    -14.48861140	     -5.29274403	     67.79923629	     89.95437384	      0.00000000	      0.00000000	    -16.77242751	      6.67308299	     20.83930888	     23.94241176	     89.95437384	      0.00000000	      0.00000000
      1.10000000	     -2.69882241	     -0.47423123	     -7.19380890	      0.54799773	      0.87254370	     -1.04481250	     -8.44107766	      0.28607872	     -5.47570594	    -28.55582790	     -0.49839322	      6.58228098	      4.51225862	     -8.36794027	     33.58669957	      7.15855289	     13.76296919	    -27.12796800	     -0.47347236	      1.58887303	      8.98225444	      3.15613330	     -3.86245717	     -1.42189027	      4.15838452	     -2.96574242	    -14.33310345	     -5.26664291	     67.71751961	     89.95437384	      0.00000000	      0.00000000	    -16.72395169	      6.81532283	     20.63028526	     24.10653914	     89.95437384	      0.00000000	      0.00000000
      1.11000000	     -2.65227373	     -0.41463622	     -7.11016586	      0.56179898	      0.87197087	     -1.04565750	     -8.26061286	     -0.03054275	     -5.59960365	    -30.36181099	     -0.52991357	      4.35857024	      3.48230807	     -7.75004531	     33.47405795	      6.75586421	     12.78177333	    -28.16759024	     -0.49161719	     -0.02525102	      9.84168296	      3.30038292	     -3.75884528	     -1.60662570	      3.95602688	     -3.26989522	    -14.14197894	     -5.31028953	     67.42789695	     89.95437384	      0.00000000	      0.00000000	    -16.41244113	      6.96488530	     20.41027029	     23.84590742	     89.95437384	      0.00000000	      0.00000000
      1.12000000	     -2.67224573	     -0.08137610	     -6.93745442	      0.57567445	      0.87151363	     -1.04692596	     -7.79424349	     -0.60737155	     -5.61100036	    -32.39678337	     -0.56543054	      2.08526889	      2.35561076	     -7.06943660	     33.60477295	      6.07751972	     11.70208546	    -29.60494416	     -0.51670375	     -0.63881295	     10.61458666	      3.27741558	     -3.53931452	     -2.06358233	      3.59902384	     -3.57133639	    -13.87376536	     -5.32975546	     66.98994391	     89.95437384	      0.00000000	      0.00000000	    -16.14161436	      7.11437841	     20.32249427	     23.78977057	     89.95437384	      0.00000000	      0.00000000
